<svg width="192" height="192" viewBox="0 0 192 192" fill="none" xmlns="http://www.w3.org/2000/svg">
<path d="M54.5494 176.087C54.5494 179.648 75.3919 182.535 101.102 182.535C126.813 182.535 147.656 179.648 147.656 176.087C147.656 172.526 126.813 169.639 101.102 169.639C75.3919 169.639 54.5494 172.526 54.5494 176.087Z" fill="url(#paint0_radial_395_7243)"/>
<path fill-rule="evenodd" clip-rule="evenodd" d="M133.526 67.9728C126.586 76.5856 125.496 87.8092 134.565 95.2905C143.634 102.772 155.915 98.3505 160.996 89.5403C168.437 76.6387 172.078 57.8115 165.286 53.0848C158.495 48.3579 140.579 59.2193 133.526 67.9728Z" fill="url(#paint1_linear_395_7243)"/>
<path fill-rule="evenodd" clip-rule="evenodd" d="M133.526 67.9728C126.586 76.5856 125.496 87.8092 134.565 95.2905C143.634 102.772 155.915 98.3505 160.996 89.5403C168.437 76.6387 172.078 57.8115 165.286 53.0848C158.495 48.3579 140.579 59.2193 133.526 67.9728Z" fill="url(#paint2_radial_395_7243)"/>
<path fill-rule="evenodd" clip-rule="evenodd" d="M54.5811 111.678L48.024 66.3596C44.44 41.5891 61.6407 18.5689 86.4112 14.9849C111.182 11.4008 134.202 28.6015 137.786 53.372L144.653 100.832C150.869 143.79 59.5061 145.716 54.5811 111.678Z" fill="url(#paint3_radial_395_7243)"/>
<path fill-rule="evenodd" clip-rule="evenodd" d="M141.307 51.0267L147.947 96.9133C151.833 123.771 133.183 148.73 106.325 152.616C79.4678 156.502 54.5082 137.852 50.6223 110.995L43.6469 62.7861C43.1521 59.3659 44.347 57.2179 47.9946 57.7805C52.8473 58.5292 55.0229 59.7654 59.0389 65.2632C62.753 70.348 76.0335 88.746 79.0604 92.3467C85.0991 99.5294 94.2508 107.924 115.501 104.85C131.458 102.541 143.101 87.7328 141.112 73.9804L137.112 46.3371C136.832 44.4048 140.648 46.4702 141.307 51.0267Z" fill="url(#paint4_linear_395_7243)"/>
<path fill-rule="evenodd" clip-rule="evenodd" d="M105.951 150.02C121.7 147.741 127.706 144.082 138.311 133.849C130.777 143.686 119.546 150.704 106.326 152.616C93.4365 154.481 80.9839 151.156 71.088 144.223C80.1392 147.87 88.9815 152.475 105.951 150.02Z" fill="white" fill-opacity="0.05"/>
<path fill-rule="evenodd" clip-rule="evenodd" d="M109.566 122.713C109.634 124.15 110.29 130.101 110.386 131.236C110.482 132.371 111.413 133.126 112.441 133.649C113.469 134.173 117.484 135.805 118.876 136.132C120.267 136.459 121.661 136.148 122.732 135.574C123.804 135 127.8 131.488 128.507 130.598C129.214 129.708 129.779 128.135 129.817 126.689C129.857 125.169 129.661 121.828 129.56 120.925C129.38 119.322 129.165 118.82 128.046 117.979C126.66 116.937 123.354 115.325 121.918 114.733C120.53 114.161 118.485 114.349 116.934 115.489C115.732 116.372 112.029 119.052 111 119.941C109.971 120.83 109.518 121.703 109.566 122.713Z" fill="url(#paint5_radial_395_7243)"/>
<path fill-rule="evenodd" clip-rule="evenodd" d="M112.045 122.736C112.085 123.592 112.477 127.137 112.534 127.813C112.591 128.489 113.145 128.939 113.758 129.251C114.37 129.563 116.762 130.535 117.591 130.73C118.42 130.925 119.25 130.74 119.889 130.398C120.527 130.055 122.908 127.963 123.329 127.433C123.75 126.903 124.086 125.966 124.109 125.105C124.133 124.199 124.016 122.209 123.956 121.671C123.849 120.716 123.721 120.417 123.054 119.916C122.228 119.295 120.259 118.335 119.403 117.982C118.576 117.642 117.358 117.753 116.434 118.432C115.719 118.958 113.512 120.555 112.899 121.085C112.287 121.614 112.016 122.134 112.045 122.736Z" fill="white"/>
<path fill-rule="evenodd" clip-rule="evenodd" d="M109.565 122.713C109.633 124.15 110.289 130.101 110.385 131.236C110.244 128.658 109.834 123.851 109.791 122.744C109.74 121.453 110.556 120.686 111.17 120.155C112.624 118.898 115.879 116.583 117.042 115.729C118.225 114.858 120.319 114.342 121.8 114.998C123.517 115.757 126.157 116.973 127.872 118.15C128.997 118.924 129.198 119.392 129.559 120.925C129.379 119.322 129.165 118.82 128.046 117.98C126.659 116.938 123.353 115.325 121.917 114.733C120.529 114.161 118.484 114.349 116.933 115.489C115.732 116.372 112.028 119.052 110.999 119.941C109.97 120.83 109.517 121.703 109.565 122.713Z" fill="#0042C3"/>
<path fill-rule="evenodd" clip-rule="evenodd" d="M129.56 120.925C129.741 122.186 129.893 123.74 130.006 126.658C130.047 127.732 129.715 129.78 128.651 130.862C126.96 132.58 124.755 134.671 122.905 135.796C121.369 136.73 119.72 136.659 118.829 136.389C116.401 135.652 113.854 134.522 112.234 133.823C110.54 133.091 110.439 132.2 110.386 131.236C110.481 132.371 111.412 133.126 112.44 133.649C113.469 134.173 117.484 135.805 118.876 136.132C120.267 136.459 121.661 136.148 122.732 135.574C123.804 135 127.8 131.488 128.507 130.598C129.213 129.708 129.778 128.135 129.817 126.689C129.857 125.169 129.661 121.828 129.56 120.925Z" fill="#98B5FF"/>
<path fill-rule="evenodd" clip-rule="evenodd" d="M44.1094 65.9808L43.6472 62.7861C43.1523 59.3659 44.3474 57.2176 47.9951 57.7806C52.8476 58.5291 55.0232 59.7654 59.0393 65.2632C62.7534 70.348 76.0337 88.7459 79.0607 92.3465C85.0993 99.5294 94.251 107.924 115.501 104.85C131.458 102.541 143.102 87.7326 141.112 73.9803L137.112 46.337C136.833 44.4049 140.648 46.4701 141.307 51.0266L144.519 73.2223C146.759 88.7036 137.071 105.285 116.499 108.261C93.0238 111.658 82.3191 103.77 75.038 93.6881C69.1609 85.5502 57.4558 69.5688 54.4797 65.5905C50.9657 60.893 47.8045 61.3506 45.6232 61.1213C43.5031 60.8987 43.8355 64.0875 44.1094 65.9808Z" fill="url(#paint6_linear_395_7243)"/>
<path fill-rule="evenodd" clip-rule="evenodd" d="M96.7141 81.9011C99.0552 83.165 101.219 84.0716 103.284 84.5969C105.035 85.0422 106.7 85.1914 108.26 85.1001C108.967 85.0587 109.655 84.9546 110.314 84.7869C111.349 84.5242 112.328 84.1504 113.232 83.6326C115.321 82.4355 117.073 80.7079 118.523 78.3852C118.946 77.8523 118.857 77.0759 118.324 76.6525C117.791 76.2291 117.014 76.3182 116.591 76.8511C115.3 78.1312 113.908 78.9966 112.444 79.6592C111.587 80.0477 110.693 80.281 109.759 80.474C109.161 80.598 108.546 80.6826 107.907 80.7484C106.391 80.9047 104.758 80.8974 102.945 80.6295C101.331 80.3908 99.6063 80.0635 97.7353 79.4828C97.0679 79.201 96.2974 79.514 96.0154 80.1815C95.7337 80.8486 96.0467 81.6193 96.7141 81.9011Z" fill="white"/>
<path fill-rule="evenodd" clip-rule="evenodd" d="M81.5781 66.0342C82.7578 64.7728 84.1265 63.8409 85.5344 63.0785C86.98 62.2956 88.497 61.8336 89.9889 61.5857C90.5946 61.4852 91.1926 61.4162 91.7847 61.3902C92.6912 61.3507 93.5753 61.3736 94.4256 61.5716C95.8715 61.908 97.2354 62.5274 98.3232 63.7074C98.7295 64.2457 99.4964 64.353 100.035 63.9467C100.573 63.5402 100.68 62.7735 100.274 62.235C98.8498 59.9254 96.7086 58.4991 94.2653 57.8322C93.2965 57.5676 92.2727 57.4643 91.2316 57.4915C90.5713 57.509 89.9024 57.5922 89.2393 57.7412C87.6969 58.088 86.1581 58.7152 84.7405 59.6391C82.8372 60.8793 81.1397 62.5741 79.8168 64.6825C79.4439 65.1683 79.5355 65.8659 80.0217 66.2388C80.5076 66.6118 81.2049 66.5201 81.5781 66.0342Z" fill="white"/>
<path fill-rule="evenodd" clip-rule="evenodd" d="M129.411 57.5916C127.574 55.3758 125.366 54.1206 123.118 53.5957C121.98 53.3303 120.827 53.309 119.713 53.4515C119.104 53.5296 118.504 53.6721 117.931 53.8789C117.07 54.1894 116.252 54.61 115.521 55.1584C113.78 56.4639 112.42 58.2706 111.729 60.4675C111.459 61.0857 111.741 61.8067 112.359 62.0767C112.977 62.3466 113.698 62.0641 113.968 61.4459C114.667 60.2368 115.686 59.3541 116.8 58.6387C117.446 58.2237 118.152 57.9388 118.878 57.6954C119.349 57.5375 119.831 57.4147 120.324 57.3208C121.542 57.0885 122.818 57.0392 124.123 57.3843C125.373 57.7145 126.646 58.231 127.859 59.1786C128.297 59.607 129 59.5991 129.428 59.1613C129.857 58.7234 129.849 58.0201 129.411 57.5916Z" fill="white"/>
<path d="M45.7494 78.1881C38.0989 81.2184 36.3758 94.9825 41.9008 108.931C47.4258 122.88 58.1066 131.731 65.7571 128.7C73.4076 125.67 75.1306 111.906 69.6057 97.9573C64.0807 84.0087 53.3999 75.1577 45.7494 78.1881Z" fill="url(#paint7_radial_395_7243)"/>
<path fill-rule="evenodd" clip-rule="evenodd" d="M27.176 97.1267C34.8956 89.2051 45.9078 86.7784 54.4216 94.8864C62.9354 102.994 60.0169 115.716 51.8788 121.816C39.9615 130.749 21.7059 136.618 16.1997 130.442C10.6933 124.266 19.3305 105.178 27.176 97.1267Z" fill="url(#paint8_linear_395_7243)"/>
<path fill-rule="evenodd" clip-rule="evenodd" d="M27.176 97.1267C34.8956 89.2051 45.9078 86.7784 54.4216 94.8864C62.9354 102.994 60.0169 115.716 51.8788 121.816C39.9615 130.749 21.7059 136.618 16.1997 130.442C10.6933 124.266 19.3305 105.178 27.176 97.1267Z" fill="url(#paint9_radial_395_7243)"/>
<defs>
<radialGradient id="paint0_radial_395_7243" cx="0" cy="0" r="1" gradientUnits="userSpaceOnUse" gradientTransform="translate(102.554 176.275) rotate(-179.775) scale(48.0043 6.65784)">
<stop stop-color="#334C9D"/>
<stop offset="0.28" stop-color="#334C9D" stop-opacity="0.76"/>
<stop offset="1" stop-color="#334C9D" stop-opacity="0"/>
</radialGradient>
<linearGradient id="paint1_linear_395_7243" x1="137.108" y1="70.3077" x2="162.203" y2="87.015" gradientUnits="userSpaceOnUse">
<stop stop-color="#ACC5FD"/>
<stop offset="1" stop-color="#3966B8"/>
</linearGradient>
<radialGradient id="paint2_radial_395_7243" cx="0" cy="0" r="1" gradientUnits="userSpaceOnUse" gradientTransform="translate(132.177 77.646) rotate(9.05547) scale(26.3355)">
<stop stop-color="#CCDCFF"/>
<stop offset="0.33" stop-color="#B9CFFF" stop-opacity="0.67"/>
<stop offset="1" stop-color="#8BA9E8" stop-opacity="0"/>
</radialGradient>
<radialGradient id="paint3_radial_395_7243" cx="0" cy="0" r="1" gradientUnits="userSpaceOnUse" gradientTransform="translate(77.8588 43.0702) rotate(46.5475) scale(73.2347)">
<stop stop-color="#0060D3"/>
<stop offset="0.27" stop-color="#004BB4"/>
<stop offset="1" stop-color="#002176"/>
</radialGradient>
<linearGradient id="paint4_linear_395_7243" x1="108.268" y1="153.854" x2="92.9827" y2="68.9373" gradientUnits="userSpaceOnUse">
<stop stop-color="#2667C5"/>
<stop offset="1" stop-color="#C2D2F6"/>
</linearGradient>
<radialGradient id="paint5_radial_395_7243" cx="0" cy="0" r="1" gradientUnits="userSpaceOnUse" gradientTransform="translate(118.285 124.525) rotate(34.0521) scale(9.72461)">
<stop stop-color="#D7E2FF"/>
<stop offset="1" stop-color="#0040BF"/>
</radialGradient>
<linearGradient id="paint6_linear_395_7243" x1="48.5275" y1="96.5156" x2="144.731" y2="84.9771" gradientUnits="userSpaceOnUse">
<stop stop-color="#E6EEFF"/>
<stop offset="0.2" stop-color="#C2D2F6"/>
<stop offset="0.5" stop-color="#FCFCFE"/>
<stop offset="0.8" stop-color="white"/>
<stop offset="1" stop-color="#E1E9FE"/>
</linearGradient>
<radialGradient id="paint7_radial_395_7243" cx="0" cy="0" r="1" gradientUnits="userSpaceOnUse" gradientTransform="translate(55.661 104.392) rotate(-109.546) scale(26.4301 14.4985)">
<stop stop-color="#00449B"/>
<stop offset="1" stop-color="#77A0E2" stop-opacity="0"/>
</radialGradient>
<linearGradient id="paint8_linear_395_7243" x1="29.9233" y1="100.404" x2="49.5163" y2="123.317" gradientUnits="userSpaceOnUse">
<stop stop-color="#ACC5FD"/>
<stop offset="1" stop-color="#3966B8"/>
</linearGradient>
<radialGradient id="paint9_radial_395_7243" cx="0" cy="0" r="1" gradientUnits="userSpaceOnUse" gradientTransform="translate(35.1533 96.3166) rotate(74.0649) scale(26.3355)">
<stop stop-color="#B7CDFF"/>
<stop offset="0.33" stop-color="#AAC5FF" stop-opacity="0.67"/>
<stop offset="1" stop-color="#8BA9E8" stop-opacity="0"/>
</radialGradient>
</defs>
</svg>
